<mxfile host="app.diagrams.net" modified="2023-10-15T09:20:59.588Z" agent="Mozilla/5.0 (X11; Linux x86_64; rv:109.0) Gecko/20100101 Firefox/118.0" etag="t4Q-IkTrbAmu4DNuFZMp" version="22.0.4" type="device">
  <diagram id="C5RBs43oDa-KdzZeNtuy" name="Page-1">
    <mxGraphModel dx="1562" dy="873" grid="1" gridSize="10" guides="1" tooltips="1" connect="1" arrows="1" fold="1" page="1" pageScale="1" pageWidth="2339" pageHeight="3300" math="0" shadow="0">
      <root>
        <mxCell id="WIyWlLk6GJQsqaUBKTNV-0" />
        <mxCell id="WIyWlLk6GJQsqaUBKTNV-1" parent="WIyWlLk6GJQsqaUBKTNV-0" />
        <mxCell id="GtamqTz11XZa52CD3jdo-2" value="WelcomePage" style="strokeWidth=2;html=1;shape=mxgraph.flowchart.document2;whiteSpace=wrap;size=0.25;" vertex="1" parent="WIyWlLk6GJQsqaUBKTNV-1">
          <mxGeometry x="70" y="160" width="210" height="470" as="geometry" />
        </mxCell>
        <mxCell id="GtamqTz11XZa52CD3jdo-26" value="" style="edgeStyle=orthogonalEdgeStyle;rounded=0;orthogonalLoop=1;jettySize=auto;html=1;" edge="1" parent="WIyWlLk6GJQsqaUBKTNV-1" source="GtamqTz11XZa52CD3jdo-17" target="GtamqTz11XZa52CD3jdo-2">
          <mxGeometry relative="1" as="geometry" />
        </mxCell>
        <mxCell id="GtamqTz11XZa52CD3jdo-17" value="Actor" style="shape=umlActor;verticalLabelPosition=bottom;verticalAlign=top;html=1;outlineConnect=0;" vertex="1" parent="WIyWlLk6GJQsqaUBKTNV-1">
          <mxGeometry x="40" y="20" width="30" height="60" as="geometry" />
        </mxCell>
        <mxCell id="GtamqTz11XZa52CD3jdo-32" value="" style="edgeStyle=orthogonalEdgeStyle;rounded=0;orthogonalLoop=1;jettySize=auto;html=1;" edge="1" parent="WIyWlLk6GJQsqaUBKTNV-1" source="GtamqTz11XZa52CD3jdo-19" target="GtamqTz11XZa52CD3jdo-31">
          <mxGeometry relative="1" as="geometry" />
        </mxCell>
        <mxCell id="GtamqTz11XZa52CD3jdo-19" value="Felh.Profil" style="rounded=1;whiteSpace=wrap;html=1;" vertex="1" parent="WIyWlLk6GJQsqaUBKTNV-1">
          <mxGeometry x="265" y="240" width="120" height="60" as="geometry" />
        </mxCell>
        <mxCell id="GtamqTz11XZa52CD3jdo-39" value="" style="edgeStyle=orthogonalEdgeStyle;rounded=0;orthogonalLoop=1;jettySize=auto;html=1;" edge="1" parent="WIyWlLk6GJQsqaUBKTNV-1" source="GtamqTz11XZa52CD3jdo-20" target="GtamqTz11XZa52CD3jdo-38">
          <mxGeometry relative="1" as="geometry" />
        </mxCell>
        <mxCell id="GtamqTz11XZa52CD3jdo-20" value="Felh.Reg." style="rounded=1;whiteSpace=wrap;html=1;" vertex="1" parent="WIyWlLk6GJQsqaUBKTNV-1">
          <mxGeometry x="265" y="170" width="120" height="60" as="geometry" />
        </mxCell>
        <mxCell id="GtamqTz11XZa52CD3jdo-45" value="" style="edgeStyle=orthogonalEdgeStyle;rounded=0;orthogonalLoop=1;jettySize=auto;html=1;" edge="1" parent="WIyWlLk6GJQsqaUBKTNV-1" source="GtamqTz11XZa52CD3jdo-21" target="GtamqTz11XZa52CD3jdo-44">
          <mxGeometry relative="1" as="geometry" />
        </mxCell>
        <mxCell id="GtamqTz11XZa52CD3jdo-21" value="Termékek" style="rounded=1;whiteSpace=wrap;html=1;" vertex="1" parent="WIyWlLk6GJQsqaUBKTNV-1">
          <mxGeometry x="265" y="380" width="120" height="60" as="geometry" />
        </mxCell>
        <mxCell id="GtamqTz11XZa52CD3jdo-24" value="" style="edgeStyle=orthogonalEdgeStyle;rounded=0;orthogonalLoop=1;jettySize=auto;html=1;" edge="1" parent="WIyWlLk6GJQsqaUBKTNV-1" source="GtamqTz11XZa52CD3jdo-22" target="GtamqTz11XZa52CD3jdo-23">
          <mxGeometry relative="1" as="geometry" />
        </mxCell>
        <mxCell id="GtamqTz11XZa52CD3jdo-22" value="Kosár" style="rounded=1;whiteSpace=wrap;html=1;" vertex="1" parent="WIyWlLk6GJQsqaUBKTNV-1">
          <mxGeometry x="265" y="450" width="120" height="60" as="geometry" />
        </mxCell>
        <mxCell id="GtamqTz11XZa52CD3jdo-23" value="Fizetés" style="rounded=1;whiteSpace=wrap;html=1;" vertex="1" parent="WIyWlLk6GJQsqaUBKTNV-1">
          <mxGeometry x="440" y="450" width="120" height="60" as="geometry" />
        </mxCell>
        <mxCell id="GtamqTz11XZa52CD3jdo-27" value="&lt;div&gt;Login &lt;br&gt;&lt;/div&gt;&lt;div&gt;(modal)&lt;br&gt;&lt;/div&gt;" style="rounded=1;whiteSpace=wrap;html=1;" vertex="1" parent="WIyWlLk6GJQsqaUBKTNV-1">
          <mxGeometry x="265" y="310" width="120" height="60" as="geometry" />
        </mxCell>
        <mxCell id="GtamqTz11XZa52CD3jdo-29" value="Felh.Profil oldal" style="shape=document;whiteSpace=wrap;html=1;boundedLbl=1;" vertex="1" parent="WIyWlLk6GJQsqaUBKTNV-1">
          <mxGeometry x="610" y="230" width="120" height="80" as="geometry" />
        </mxCell>
        <mxCell id="GtamqTz11XZa52CD3jdo-33" value="" style="edgeStyle=orthogonalEdgeStyle;rounded=0;orthogonalLoop=1;jettySize=auto;html=1;" edge="1" parent="WIyWlLk6GJQsqaUBKTNV-1" source="GtamqTz11XZa52CD3jdo-31" target="GtamqTz11XZa52CD3jdo-29">
          <mxGeometry relative="1" as="geometry" />
        </mxCell>
        <mxCell id="GtamqTz11XZa52CD3jdo-34" value="IGEN" style="edgeLabel;html=1;align=center;verticalAlign=middle;resizable=0;points=[];" vertex="1" connectable="0" parent="GtamqTz11XZa52CD3jdo-33">
          <mxGeometry x="-0.2571" y="-1" relative="1" as="geometry">
            <mxPoint as="offset" />
          </mxGeometry>
        </mxCell>
        <mxCell id="GtamqTz11XZa52CD3jdo-31" value="Már Bejelentekett?" style="rhombus;whiteSpace=wrap;html=1;" vertex="1" parent="WIyWlLk6GJQsqaUBKTNV-1">
          <mxGeometry x="460" y="230" width="80" height="80" as="geometry" />
        </mxCell>
        <mxCell id="GtamqTz11XZa52CD3jdo-36" value="" style="endArrow=classic;html=1;rounded=0;exitX=0.5;exitY=1;exitDx=0;exitDy=0;entryX=1;entryY=0.25;entryDx=0;entryDy=0;" edge="1" parent="WIyWlLk6GJQsqaUBKTNV-1" source="GtamqTz11XZa52CD3jdo-31" target="GtamqTz11XZa52CD3jdo-27">
          <mxGeometry width="50" height="50" relative="1" as="geometry">
            <mxPoint x="530" y="360" as="sourcePoint" />
            <mxPoint x="580" y="310" as="targetPoint" />
            <Array as="points">
              <mxPoint x="500" y="325" />
            </Array>
          </mxGeometry>
        </mxCell>
        <mxCell id="GtamqTz11XZa52CD3jdo-37" value="NEM" style="edgeLabel;html=1;align=center;verticalAlign=middle;resizable=0;points=[];" vertex="1" connectable="0" parent="GtamqTz11XZa52CD3jdo-36">
          <mxGeometry x="0.0615" y="1" relative="1" as="geometry">
            <mxPoint as="offset" />
          </mxGeometry>
        </mxCell>
        <mxCell id="GtamqTz11XZa52CD3jdo-38" value="Felh.Reg. oldal" style="shape=document;whiteSpace=wrap;html=1;boundedLbl=1;" vertex="1" parent="WIyWlLk6GJQsqaUBKTNV-1">
          <mxGeometry x="800" y="160" width="120" height="80" as="geometry" />
        </mxCell>
        <mxCell id="GtamqTz11XZa52CD3jdo-41" value="Felhasználó regisztráció" style="strokeWidth=2;html=1;shape=mxgraph.flowchart.document2;whiteSpace=wrap;size=0.25;" vertex="1" parent="WIyWlLk6GJQsqaUBKTNV-1">
          <mxGeometry x="70" y="710" width="210" height="470" as="geometry" />
        </mxCell>
        <mxCell id="GtamqTz11XZa52CD3jdo-42" value="Termékek oldal" style="shape=document;whiteSpace=wrap;html=1;boundedLbl=1;" vertex="1" parent="WIyWlLk6GJQsqaUBKTNV-1">
          <mxGeometry x="610" y="370" width="120" height="80" as="geometry" />
        </mxCell>
        <mxCell id="GtamqTz11XZa52CD3jdo-46" value="" style="edgeStyle=orthogonalEdgeStyle;rounded=0;orthogonalLoop=1;jettySize=auto;html=1;" edge="1" parent="WIyWlLk6GJQsqaUBKTNV-1" source="GtamqTz11XZa52CD3jdo-44" target="GtamqTz11XZa52CD3jdo-42">
          <mxGeometry relative="1" as="geometry" />
        </mxCell>
        <mxCell id="GtamqTz11XZa52CD3jdo-44" value="Előszűrés" style="shape=parallelogram;perimeter=parallelogramPerimeter;whiteSpace=wrap;html=1;fixedSize=1;" vertex="1" parent="WIyWlLk6GJQsqaUBKTNV-1">
          <mxGeometry x="440" y="380" width="120" height="60" as="geometry" />
        </mxCell>
        <mxCell id="GtamqTz11XZa52CD3jdo-51" value="Felh. adatok" style="swimlane;fontStyle=0;childLayout=stackLayout;horizontal=1;startSize=30;horizontalStack=0;resizeParent=1;resizeParentMax=0;resizeLast=0;collapsible=1;marginBottom=0;whiteSpace=wrap;html=1;" vertex="1" parent="WIyWlLk6GJQsqaUBKTNV-1">
          <mxGeometry x="280" y="730" width="185" height="210" as="geometry">
            <mxRectangle x="255" y="740" width="110" height="30" as="alternateBounds" />
          </mxGeometry>
        </mxCell>
        <mxCell id="GtamqTz11XZa52CD3jdo-52" value="Email cím" style="text;strokeColor=none;fillColor=none;align=left;verticalAlign=middle;spacingLeft=4;spacingRight=4;overflow=hidden;points=[[0,0.5],[1,0.5]];portConstraint=eastwest;rotatable=0;whiteSpace=wrap;html=1;" vertex="1" parent="GtamqTz11XZa52CD3jdo-51">
          <mxGeometry y="30" width="185" height="30" as="geometry" />
        </mxCell>
        <mxCell id="GtamqTz11XZa52CD3jdo-53" value="Név (Vezeték + kereszt)" style="text;strokeColor=none;fillColor=none;align=left;verticalAlign=middle;spacingLeft=4;spacingRight=4;overflow=hidden;points=[[0,0.5],[1,0.5]];portConstraint=eastwest;rotatable=0;whiteSpace=wrap;html=1;" vertex="1" parent="GtamqTz11XZa52CD3jdo-51">
          <mxGeometry y="60" width="185" height="30" as="geometry" />
        </mxCell>
        <mxCell id="GtamqTz11XZa52CD3jdo-54" value="Cím" style="text;strokeColor=none;fillColor=none;align=left;verticalAlign=middle;spacingLeft=4;spacingRight=4;overflow=hidden;points=[[0,0.5],[1,0.5]];portConstraint=eastwest;rotatable=0;whiteSpace=wrap;html=1;" vertex="1" parent="GtamqTz11XZa52CD3jdo-51">
          <mxGeometry y="90" width="185" height="30" as="geometry" />
        </mxCell>
        <mxCell id="GtamqTz11XZa52CD3jdo-55" value="Telefon" style="text;strokeColor=none;fillColor=none;align=left;verticalAlign=middle;spacingLeft=4;spacingRight=4;overflow=hidden;points=[[0,0.5],[1,0.5]];portConstraint=eastwest;rotatable=0;whiteSpace=wrap;html=1;" vertex="1" parent="GtamqTz11XZa52CD3jdo-51">
          <mxGeometry y="120" width="185" height="30" as="geometry" />
        </mxCell>
        <mxCell id="GtamqTz11XZa52CD3jdo-56" value="Jelszó" style="text;strokeColor=none;fillColor=none;align=left;verticalAlign=middle;spacingLeft=4;spacingRight=4;overflow=hidden;points=[[0,0.5],[1,0.5]];portConstraint=eastwest;rotatable=0;whiteSpace=wrap;html=1;" vertex="1" parent="GtamqTz11XZa52CD3jdo-51">
          <mxGeometry y="150" width="185" height="30" as="geometry" />
        </mxCell>
        <mxCell id="GtamqTz11XZa52CD3jdo-57" value="Felh. feltételek" style="text;strokeColor=none;fillColor=none;align=left;verticalAlign=middle;spacingLeft=4;spacingRight=4;overflow=hidden;points=[[0,0.5],[1,0.5]];portConstraint=eastwest;rotatable=0;whiteSpace=wrap;html=1;" vertex="1" parent="GtamqTz11XZa52CD3jdo-51">
          <mxGeometry y="180" width="185" height="30" as="geometry" />
        </mxCell>
        <mxCell id="GtamqTz11XZa52CD3jdo-61" value="Cím" style="swimlane;fontStyle=0;childLayout=stackLayout;horizontal=1;startSize=30;horizontalStack=0;resizeParent=1;resizeParentMax=0;resizeLast=0;collapsible=1;marginBottom=0;whiteSpace=wrap;html=1;" vertex="1" collapsed="1" parent="WIyWlLk6GJQsqaUBKTNV-1">
          <mxGeometry x="500" y="840" width="60" height="30" as="geometry">
            <mxRectangle x="580" y="830" width="140" height="150" as="alternateBounds" />
          </mxGeometry>
        </mxCell>
        <mxCell id="GtamqTz11XZa52CD3jdo-62" value="Irányítószám" style="text;strokeColor=none;fillColor=none;align=left;verticalAlign=middle;spacingLeft=4;spacingRight=4;overflow=hidden;points=[[0,0.5],[1,0.5]];portConstraint=eastwest;rotatable=0;whiteSpace=wrap;html=1;" vertex="1" parent="GtamqTz11XZa52CD3jdo-61">
          <mxGeometry y="30" width="140" height="30" as="geometry" />
        </mxCell>
        <mxCell id="GtamqTz11XZa52CD3jdo-63" value="Város&lt;span style=&quot;white-space: pre;&quot;&gt;&#x9;&lt;/span&gt;" style="text;strokeColor=none;fillColor=none;align=left;verticalAlign=middle;spacingLeft=4;spacingRight=4;overflow=hidden;points=[[0,0.5],[1,0.5]];portConstraint=eastwest;rotatable=0;whiteSpace=wrap;html=1;" vertex="1" parent="GtamqTz11XZa52CD3jdo-61">
          <mxGeometry y="60" width="140" height="30" as="geometry" />
        </mxCell>
        <mxCell id="GtamqTz11XZa52CD3jdo-64" value="Utca&lt;span style=&quot;white-space: pre;&quot;&gt;&#x9;&lt;/span&gt;" style="text;strokeColor=none;fillColor=none;align=left;verticalAlign=middle;spacingLeft=4;spacingRight=4;overflow=hidden;points=[[0,0.5],[1,0.5]];portConstraint=eastwest;rotatable=0;whiteSpace=wrap;html=1;" vertex="1" parent="GtamqTz11XZa52CD3jdo-61">
          <mxGeometry y="90" width="140" height="30" as="geometry" />
        </mxCell>
        <mxCell id="GtamqTz11XZa52CD3jdo-66" value="Házszám" style="text;strokeColor=none;fillColor=none;align=left;verticalAlign=middle;spacingLeft=4;spacingRight=4;overflow=hidden;points=[[0,0.5],[1,0.5]];portConstraint=eastwest;rotatable=0;whiteSpace=wrap;html=1;" vertex="1" parent="GtamqTz11XZa52CD3jdo-61">
          <mxGeometry y="120" width="140" height="30" as="geometry" />
        </mxCell>
        <mxCell id="GtamqTz11XZa52CD3jdo-65" value="" style="edgeStyle=orthogonalEdgeStyle;rounded=0;orthogonalLoop=1;jettySize=auto;html=1;entryX=-0.007;entryY=0.058;entryDx=0;entryDy=0;entryPerimeter=0;" edge="1" parent="WIyWlLk6GJQsqaUBKTNV-1" source="GtamqTz11XZa52CD3jdo-54" target="GtamqTz11XZa52CD3jdo-61">
          <mxGeometry relative="1" as="geometry" />
        </mxCell>
        <mxCell id="GtamqTz11XZa52CD3jdo-67" value="DB" style="strokeWidth=2;html=1;shape=mxgraph.flowchart.database;whiteSpace=wrap;" vertex="1" parent="WIyWlLk6GJQsqaUBKTNV-1">
          <mxGeometry x="800" y="720" width="60" height="60" as="geometry" />
        </mxCell>
        <mxCell id="GtamqTz11XZa52CD3jdo-70" value="" style="edgeStyle=orthogonalEdgeStyle;rounded=0;orthogonalLoop=1;jettySize=auto;html=1;" edge="1" parent="WIyWlLk6GJQsqaUBKTNV-1" source="GtamqTz11XZa52CD3jdo-69" target="GtamqTz11XZa52CD3jdo-67">
          <mxGeometry relative="1" as="geometry" />
        </mxCell>
        <mxCell id="GtamqTz11XZa52CD3jdo-69" value="Adatok ellenőrzése" style="shape=parallelogram;html=1;strokeWidth=2;perimeter=parallelogramPerimeter;whiteSpace=wrap;rounded=1;arcSize=12;size=0.23;" vertex="1" parent="WIyWlLk6GJQsqaUBKTNV-1">
          <mxGeometry x="600" y="710" width="100" height="60" as="geometry" />
        </mxCell>
        <mxCell id="GtamqTz11XZa52CD3jdo-71" value="" style="endArrow=classic;html=1;rounded=0;exitX=0.995;exitY=0.067;exitDx=0;exitDy=0;exitPerimeter=0;" edge="1" parent="WIyWlLk6GJQsqaUBKTNV-1" source="GtamqTz11XZa52CD3jdo-51" target="GtamqTz11XZa52CD3jdo-69">
          <mxGeometry width="50" height="50" relative="1" as="geometry">
            <mxPoint x="510" y="750" as="sourcePoint" />
            <mxPoint x="570" y="690" as="targetPoint" />
          </mxGeometry>
        </mxCell>
      </root>
    </mxGraphModel>
  </diagram>
</mxfile>
